<svg width="24" height="24" viewBox="0 0 24 24" fill="none" xmlns="http://www.w3.org/2000/svg">
<path d="M19.2189 1.29053C20.5307 2.60234 21.4506 4.23281 21.9032 6.00002M4.71052 1.29053C3.39871 2.60234 2.47884 4.23281 2.02631 6.00002L4.71052 1.29053Z" stroke="#444444" stroke-width="1.73288" stroke-linecap="round" stroke-linejoin="round"/>
<path d="M9.73242 21.3563C10.1659 22.1646 11.0188 22.7142 12 22.7142C12.9813 22.7142 13.8341 22.1646 14.2676 21.3563" stroke="#444444" stroke-width="1.73288" stroke-linecap="round" stroke-linejoin="round"/>
<path d="M7.77616 4.32094C8.89636 3.20074 10.4157 2.57141 11.9999 2.57141C13.5841 2.57141 15.1034 3.20074 16.2236 4.32094C17.3438 5.44116 17.9732 6.96048 17.9732 8.5447C17.9732 9.47685 18.1269 10.3527 18.3584 11.2486C18.4058 11.3967 18.4566 11.5388 18.5106 11.6749C18.8846 12.6202 20.0147 12.9232 20.775 13.5981C21.7304 14.4461 21.4998 16.0754 20.6229 16.7237C20.6229 16.7237 19.1488 18 11.9999 18C4.85103 18 3.37686 16.7237 3.37686 16.7237C2.50004 16.0754 2.26954 14.4461 3.2248 13.5981C3.98511 12.9232 5.11515 12.6201 5.48931 11.6748C5.81245 10.8584 6.02663 9.83112 6.02663 8.5447C6.02663 6.96048 6.65595 5.44116 7.77616 4.32094Z" fill="#D9D9D9" stroke="#444444" stroke-width="1.73288" stroke-linecap="round" stroke-linejoin="round"/>
</svg>
