<svg width="33" height="32" viewBox="0 0 33 32" fill="" xmlns="http://www.w3.org/2000/svg">
<path fill-rule="evenodd" clip-rule="evenodd" d="M8.2919 6.65382L6.88265 11.1708C6.65334 11.5632 6.49453 12.003 6.42378 12.4734L6.28788 13.3772C5.76022 16.8861 5.80955 20.4577 6.43392 23.9507C6.68732 25.3683 7.8515 26.4451 9.28453 26.5874L10.9251 26.7502C14.8543 27.1402 18.8123 27.1402 22.7415 26.7502L24.3821 26.5874C25.8151 26.4451 26.9793 25.3683 27.2327 23.9507C27.8571 20.4577 27.9064 16.8861 27.3787 13.3772L27.2428 12.4734C27.1692 11.9837 27.0001 11.5271 26.7553 11.1227L25.3735 6.65932C25.0154 5.50256 24.0207 4.6572 22.8213 4.4903C18.8485 3.93744 14.8161 3.93775 10.8433 4.4906C9.6463 4.65718 8.65201 5.49961 8.2919 6.65382ZM22.5457 6.47121C18.7558 5.94381 14.909 5.9441 11.119 6.47151C10.6882 6.53146 10.3305 6.83475 10.2011 7.24949L9.53297 9.39112C9.58313 9.38405 9.6336 9.37798 9.68438 9.37294L10.9886 9.24348C14.8755 8.8577 18.7911 8.8577 22.678 9.24348L23.9822 9.37294C24.0302 9.3777 24.0778 9.38337 24.1252 9.38995L23.463 7.25081C23.3343 6.83504 22.9767 6.5312 22.5457 6.47121ZM22.1667 15.6667C22.719 15.6667 23.1667 15.219 23.1667 14.6667C23.1667 14.1144 22.719 13.6667 22.1667 13.6667H11.5C10.9477 13.6667 10.5 14.1144 10.5 14.6667C10.5 15.219 10.9477 15.6667 11.5 15.6667H22.1667Z" fill="currentColor"/>
</svg>
