<svg width="24" height="24" viewBox="0 0 24 24" fill="none" xmlns="http://www.w3.org/2000/svg">
<path d="M21.422 14.3572C20.7241 16.3349 19.4564 18.0619 17.7784 19.3201C16.1007 20.5786 14.0879 21.3121 11.9938 21.4284C10.0581 21.4287 8.16916 20.8332 6.5836 19.7227C4.99804 18.6123 3.79271 17.0407 3.13132 15.2214" stroke="#444444" stroke-width="1.73288" stroke-linecap="round" stroke-linejoin="round"/>
<path d="M2.5657 9.64305C3.88565 6.02891 7.93977 2.5719 11.9939 2.5719C13.9391 2.57737 15.8349 3.18436 17.4216 4.30964C19.0083 5.43493 20.208 7.02344 20.8565 8.85738" stroke="#444444" stroke-width="1.73288" stroke-linecap="round" stroke-linejoin="round"/>
<path d="M22.5219 17.821C22.2209 16.3977 21.9803 15.6397 21.4242 14.3636C20.061 14.6455 19.3031 14.8862 17.9669 15.4613" stroke="#444444" stroke-width="1.73288" stroke-linecap="round" stroke-linejoin="round"/>
<path d="M1.73984 6.12488C1.93473 7.56663 2.11852 8.34027 2.57865 9.65401C3.95893 9.47382 4.73254 9.28986 6.10779 8.81518" stroke="#444444" stroke-width="1.73288" stroke-linecap="round" stroke-linejoin="round"/>
</svg>
