<svg width="24" height="24" viewBox="0 0 24 24" fill="none" xmlns="http://www.w3.org/2000/svg">
<path d="M13.0388 3.58189C12.4393 3.26901 11.6159 3.26431 11.0122 3.57608C8.43359 4.90782 6.09691 6.43365 4.05094 8.12426C3.77811 8.3497 3.59757 8.66523 3.60066 9.02588C3.60373 9.3853 3.78838 9.69732 4.06031 9.91966C6.08981 11.5791 8.42912 13.1067 10.9609 14.4281C11.5604 14.741 12.3838 14.7457 12.9875 14.4339C15.5661 13.1022 17.9028 11.5763 19.9488 9.88574C20.2216 9.6603 20.4021 9.34477 20.399 8.98411C20.396 8.62469 20.2113 8.31268 19.9394 8.09033C17.9099 6.43089 15.5706 4.90327 13.0388 3.58189Z" fill="black"/>
<path d="M20.9579 13.7314C21.3092 13.512 21.4162 13.0494 21.1969 12.698C20.9775 12.3467 20.5149 12.2397 20.1635 12.459L14.0563 16.2719C13.5122 16.6116 12.7731 16.8009 11.9997 16.801C11.2262 16.801 10.487 16.6117 9.94289 16.2721L3.90256 12.5024C3.55116 12.2831 3.08852 12.3902 2.86921 12.7416C2.64991 13.093 2.75699 13.5556 3.10839 13.7749L9.14872 17.5446C9.97758 18.0619 11.0058 18.301 11.9998 18.301C12.9937 18.3009 14.0219 18.0617 14.8506 17.5443L20.9579 13.7314Z" fill="black"/>
<path d="M20.958 17.4861C21.3093 17.2667 21.4162 16.804 21.1968 16.4527C20.9774 16.1013 20.5148 15.9944 20.1634 16.2138L14.8745 19.5167C14.1017 19.9993 13.0678 20.2602 11.9996 20.2602C10.9314 20.2603 9.89751 19.9995 9.1245 19.517L3.90263 16.2572C3.55127 16.0378 3.08861 16.1448 2.86926 16.4962C2.64992 16.8476 2.75694 17.3102 3.10831 17.5296L8.33017 20.7894C9.38795 21.4497 10.711 21.7603 11.9997 21.7602C13.2884 21.7602 14.6114 21.4494 15.6691 20.7889L20.958 17.4861Z" fill="black"/>
</svg>
