<svg width="24" height="24" viewBox="0 0 24 24" fill="none" xmlns="http://www.w3.org/2000/svg">
<path d="M9.0679 3.22806C7.70441 3.07567 6.29536 3.07567 4.93187 3.22806C4.05469 3.3261 3.34539 4.01685 3.24195 4.90129C3.07886 6.29571 3.07886 7.70438 3.24195 9.0988C3.34539 9.98323 4.05469 10.674 4.93187 10.772C6.29537 10.9244 7.70441 10.9244 9.0679 10.772C9.94508 10.674 10.6544 9.98323 10.7578 9.0988C10.9209 7.70438 10.9209 6.29571 10.7578 4.90129C10.6544 4.01685 9.94508 3.3261 9.0679 3.22806Z" fill="black"/>
<path d="M9.0679 13.2281C7.70441 13.0757 6.29536 13.0757 4.93187 13.2281C4.05469 13.3261 3.34539 14.0169 3.24195 14.9013C3.07886 16.2957 3.07886 17.7044 3.24195 19.0988C3.34539 19.9832 4.05469 20.674 4.93187 20.772C6.29537 20.9244 7.70441 20.9244 9.0679 20.772C9.94508 20.674 10.6544 19.9832 10.7578 19.0988C10.9209 17.7044 10.9209 16.2957 10.7578 14.9013C10.6544 14.0169 9.94508 13.3261 9.0679 13.2281Z" fill="black"/>
<path d="M19.0679 3.22806C17.7044 3.07567 16.2954 3.07567 14.9319 3.22806C14.0547 3.3261 13.3454 4.01685 13.242 4.90129C13.0789 6.29571 13.0789 7.70438 13.242 9.0988C13.3454 9.98323 14.0547 10.674 14.9319 10.772C16.2954 10.9244 17.7044 10.9244 19.0679 10.772C19.9451 10.674 20.6544 9.98323 20.7578 9.0988C20.9209 7.70438 20.9209 6.29571 20.7578 4.90129C20.6544 4.01685 19.9451 3.3261 19.0679 3.22806Z" fill="black"/>
<path d="M19.0679 13.2281C17.7044 13.0757 16.2954 13.0757 14.9319 13.2281C14.0547 13.3261 13.3454 14.0169 13.242 14.9013C13.0789 16.2957 13.0789 17.7044 13.242 19.0988C13.3454 19.9832 14.0547 20.674 14.9319 20.772C16.2954 20.9244 17.7044 20.9244 19.0679 20.772C19.9451 20.674 20.6544 19.9832 20.7578 19.0988C20.9209 17.7044 20.9209 16.2957 20.7578 14.9013C20.6544 14.0169 19.9451 13.3261 19.0679 13.2281Z" fill="black"/>
</svg>
