<svg width="24" height="24" viewBox="0 0 24 24" fill="none" xmlns="http://www.w3.org/2000/svg">
<path fill-rule="evenodd" clip-rule="evenodd" d="M7.26735 4.65855C10.4164 4.38481 13.5833 4.38481 16.7323 4.65855L18.2425 4.78983C19.6876 4.91545 20.8583 6.0151 21.074 7.44949C21.5276 10.4662 21.5276 13.5338 21.074 16.5505C21.0343 16.8144 20.9623 17.067 20.8622 17.3042C20.7958 17.4615 20.591 17.4854 20.4762 17.3591L16.0548 12.4955C15.855 12.2757 15.5444 12.1946 15.2626 12.2885L12.7318 13.1321L9.06037 9.00173C8.92314 8.84734 8.72831 8.75639 8.52184 8.75032C8.31537 8.74426 8.11554 8.82361 7.96948 8.96967L3.05536 13.8838C2.90412 14.035 2.64618 13.9388 2.63412 13.7252C2.51588 11.6313 2.61307 9.52834 2.92568 7.44949C3.14138 6.0151 4.31205 4.91545 5.75712 4.78983L7.26735 4.65855ZM13.9998 9C13.9998 8.17157 14.6714 7.5 15.4998 7.5C16.3282 7.5 16.9998 8.17157 16.9998 9C16.9998 9.82843 16.3282 10.5 15.4998 10.5C14.6714 10.5 13.9998 9.82843 13.9998 9Z" fill="black"/>
<path d="M2.96115 16.0993C2.9058 16.1547 2.8795 16.2328 2.89053 16.3103C2.90193 16.3904 2.91364 16.4705 2.92568 16.5505C3.14138 17.9849 4.31205 19.0845 5.75712 19.2102L7.26735 19.3414C10.4164 19.6152 13.5833 19.6152 16.7323 19.3414L18.2425 19.2102C18.6672 19.1732 19.0681 19.0522 19.4281 18.8633C19.5645 18.7917 19.5875 18.6114 19.4838 18.4974L15.383 13.9865C15.3165 13.9133 15.2129 13.8862 15.119 13.9175L12.737 14.7115C12.4524 14.8064 12.1386 14.7225 11.9393 14.4983L8.64385 10.7909C8.54828 10.6834 8.38193 10.6785 8.28022 10.7803L2.96115 16.0993Z" fill="black"/>
</svg>
