<svg width="24" height="24" viewBox="0 0 24 24" fill="none" xmlns="http://www.w3.org/2000/svg">
<path fill-rule="evenodd" clip-rule="evenodd" d="M8.40595 5.19995C7.33162 5.19995 6.3168 5.69335 5.65327 6.53829L2.09177 11.0735C1.66472 11.6173 1.66472 12.3826 2.09177 12.9264L5.65327 17.4616C6.3168 18.3066 7.33162 18.8 8.40595 18.8H19.0526C20.4333 18.8 21.5526 17.6807 21.5526 16.3V7.69995C21.5526 6.31924 20.4333 5.19995 19.0526 5.19995H8.40595ZM10.4697 8.4696C10.7626 8.17671 11.2374 8.17671 11.5303 8.4696L14 10.9393L16.4697 8.46961C16.7626 8.17672 17.2374 8.17672 17.5303 8.46961C17.8232 8.7625 17.8232 9.23738 17.5303 9.53027L15.0607 11.9999L17.5303 14.4696C17.8232 14.7625 17.8232 15.2374 17.5303 15.5303C17.2374 15.8232 16.7626 15.8232 16.4697 15.5303L14 13.0606L11.5303 15.5303C11.2374 15.8232 10.7626 15.8232 10.4697 15.5303C10.1768 15.2374 10.1768 14.7625 10.4697 14.4696L12.9393 11.9999L10.4697 9.53026C10.1768 9.23737 10.1768 8.76249 10.4697 8.4696Z" fill="black"/>
</svg>
