<svg width="344" height="46" viewBox="0 0 344 46" fill="none" xmlns="http://www.w3.org/2000/svg">
<path d="M160.609 41.4465C153.966 24.3255 101.211 21.0188 58.8766 35.7548C52.5371 37.418 47.7184 38.7454 42.0143 38.5554C39.007 38.4553 36.2527 37.7826 33.8619 36.3408C26.599 31.9613 28.2133 18.6673 39.3768 19.6802M39.3768 19.6802C39.6964 19.7092 40.0238 19.7499 40.359 19.8029M39.3768 19.6802C39.7075 19.6942 40.036 19.7361 40.359 19.8029M39.3768 19.6802C39.3087 19.6773 39.2406 19.6756 39.1723 19.6751M40.359 19.8029C40.4371 19.8152 40.5156 19.8282 40.5946 19.8419M40.359 19.8029C44.3734 20.6325 47.5551 25.2942 43.9982 27.7641C41.485 29.5094 37.6188 28.126 37.8518 24.5235" stroke="#444444" stroke-width="2"/>
<path d="M183.131 41.4465C189.774 24.3255 242.528 21.0188 284.863 35.7548C291.202 37.418 296.021 38.7454 301.725 38.5554C304.732 38.4553 307.487 37.7826 309.877 36.3408C317.14 31.9613 315.526 18.6673 304.362 19.6802M304.362 19.6802C304.043 19.7092 303.715 19.7499 303.38 19.8029M304.362 19.6802C304.032 19.6942 303.703 19.7361 303.38 19.8029M304.362 19.6802C304.431 19.6773 304.499 19.6756 304.567 19.6751M303.38 19.8029C303.302 19.8152 303.224 19.8282 303.145 19.8419M303.38 19.8029C299.366 20.6325 296.184 25.2942 299.741 27.7641C302.254 29.5094 306.12 28.126 305.887 24.5235" stroke="#444444" stroke-width="2"/>
<path fill-rule="evenodd" clip-rule="evenodd" d="M175.21 22.5383C176.12 20.3824 176.692 17.2558 176.692 13.7769C176.692 11.1984 174.692 4.3554 172.225 2C169.758 4.3554 167.758 11.1984 167.758 13.7769C167.758 17.3866 168.374 20.617 169.344 22.7773C159.861 16.3723 152.22 22.6747 147.449 24.417C153.952 24.1822 162.387 27.8155 167.352 32.4352C169.395 34.3362 170.996 36.4925 172.155 38.7937C173.336 36.1246 175.092 33.6239 177.422 31.4555C182.19 27.0191 190.302 23.3803 196.55 23.4208C191.478 21.3501 184.182 16.404 175.21 22.5383Z" stroke="#444444" stroke-width="2"/>
<path d="M319.433 35.7558C321.774 36.4103 325.1 36.6602 328.743 36.3422C331.443 36.1066 339.319 33.1988 341.56 30.6741C335.068 28.9518 327.433 28.2906 324.722 28.2589C320.312 28.2072 322.876 30.8211 319.433 35.7558Z" stroke="#444444" stroke-width="2"/>
<path d="M24.5665 35.7558C22.226 36.4103 18.9 36.6602 15.2574 36.3422C12.5575 36.1066 4.68131 33.1988 2.44049 30.6741C8.93167 28.9518 16.567 28.2906 19.2782 28.2589C23.6876 28.2072 21.124 30.8211 24.5665 35.7558Z" stroke="#444444" stroke-width="2"/>
<path d="M24.5665 35.7558C22.226 36.4103 18.9 36.6602 15.2574 36.3422C12.5575 36.1066 4.68131 33.1988 2.44049 30.6741C8.93167 28.9518 16.567 28.2906 19.2782 28.2589C23.6876 28.2072 21.124 30.8211 24.5665 35.7558Z" stroke="#444444" stroke-width="2"/>
</svg>
