<svg width="24" height="24" viewBox="0 0 24 24" fill="none" xmlns="http://www.w3.org/2000/svg">
<g clip-path="url(#clip0_3632_1776)">
<path d="M1.64551 17.5832C1.90974 20.053 3.89608 22.0393 6.36458 22.3145C8.1981 22.5188 10.0807 22.6944 12 22.6944C13.9194 22.6944 15.8019 22.5188 17.6354 22.3145C20.104 22.0393 22.0903 20.053 22.3545 17.5832C22.5496 15.7601 22.7143 13.8883 22.7143 11.98C22.7143 10.0718 22.5496 8.2 22.3545 6.37684C22.0903 3.90715 20.104 1.92079 17.6354 1.64565C15.8019 1.44128 13.9194 1.26575 12 1.26575C10.0807 1.26575 8.1981 1.44128 6.36458 1.64565C3.89608 1.92079 1.90974 3.90715 1.64551 6.37684C1.45045 8.2 1.28574 10.0718 1.28574 11.98C1.28574 13.8883 1.45045 15.7601 1.64551 17.5832Z" fill="#D9D9D9"/>
<path d="M6.85718 6.83716V8.55144" stroke="#444444" stroke-width="1.73288" stroke-linecap="round" stroke-linejoin="round"/>
<path d="M17.1429 6.83716V8.55144" stroke="#444444" stroke-width="1.73288" stroke-linecap="round" stroke-linejoin="round"/>
<path d="M12 9.40857V11.5514C12 12.4982 11.2325 13.2657 10.2857 13.2657H9.42859" stroke="#444444" stroke-width="1.73288" stroke-linecap="round" stroke-linejoin="round"/>
<path d="M9.06177 17.6606C9.85466 18.4137 10.9065 18.8337 12.0001 18.8337C13.0936 18.8337 14.1454 18.4137 14.9383 17.6606" stroke="#444444" stroke-width="1.73288" stroke-linecap="round" stroke-linejoin="round"/>
<path d="M17.1661 1.59424C17.8019 1.66272 18.4319 1.73613 19.0556 1.80842C20.7004 1.99906 22.0129 3.31065 22.1977 4.95617C22.2673 5.57596 22.3374 6.20189 22.4027 6.83349" stroke="#444444" stroke-width="1.73288" stroke-linecap="round"/>
<path d="M17.1661 22.3619C17.8019 22.2935 18.4319 22.2201 19.0556 22.1478C20.7004 21.9571 22.0129 20.6455 22.1977 19C22.2673 18.3803 22.3374 17.7542 22.4027 17.1227" stroke="#444444" stroke-width="1.73288" stroke-linecap="round"/>
<path d="M6.85711 1.59424C6.22137 1.66272 5.59135 1.73613 4.96756 1.80842C3.32272 1.99906 2.01026 3.31065 1.82553 4.95617C1.75595 5.57596 1.68579 6.20189 1.62057 6.83349" stroke="#444444" stroke-width="1.73288" stroke-linecap="round"/>
<path d="M6.85711 22.3619C6.22137 22.2935 5.59135 22.2201 4.96756 22.1478C3.32272 21.9571 2.01026 20.6455 1.82553 19C1.75595 18.3803 1.68579 17.7542 1.62057 17.1227" stroke="#444444" stroke-width="1.73288" stroke-linecap="round"/>
</g>
<defs>
<clipPath id="clip0_3632_1776">
<rect width="24" height="24" fill="white"/>
</clipPath>
</defs>
</svg>
