<svg width="24" height="24" viewBox="0 0 24 24" fill="none" xmlns="http://www.w3.org/2000/svg">
<path d="M13.9998 9C13.9998 8.17157 14.6714 7.5 15.4998 7.5C16.3282 7.5 16.9998 8.17157 16.9998 9C16.9998 9.82843 16.3282 10.5 15.4998 10.5C14.6714 10.5 13.9998 9.82843 13.9998 9Z" fill="black"/>
<path fill-rule="evenodd" clip-rule="evenodd" d="M7.26735 4.65855C10.4164 4.38481 13.5833 4.38481 16.7323 4.65855L18.2425 4.78983C19.6876 4.91545 20.8583 6.0151 21.074 7.44949C21.5276 10.4662 21.5276 13.5338 21.074 16.5505C20.8583 17.9849 19.6876 19.0845 18.2425 19.2102L16.7323 19.3414C13.5833 19.6152 10.4164 19.6152 7.26735 19.3414L5.75712 19.2102C4.31205 19.0845 3.14138 17.9849 2.92568 16.5505C2.47204 13.5338 2.47204 10.4662 2.92568 7.44949C3.14138 6.0151 4.31205 4.91545 5.75712 4.78983L7.26735 4.65855ZM16.6024 6.15292C13.5398 5.88669 10.4599 5.88669 7.39725 6.15292L5.88702 6.2842C5.13269 6.34977 4.5216 6.92379 4.409 7.67254C4.15147 9.38516 4.04767 11.115 4.09762 12.8415L7.96948 8.96967C8.11554 8.82361 8.31537 8.74426 8.52184 8.75032C8.72831 8.75639 8.92314 8.84734 9.06037 9.00173L12.7318 13.1321L15.2626 12.2885C15.5457 12.1941 15.8577 12.2765 16.0573 12.4983L19.5764 16.4084C19.5818 16.3817 19.5866 16.3547 19.5906 16.3274C20.0221 13.4586 20.0221 10.5414 19.5907 7.67254C19.4781 6.92379 18.867 6.34977 18.1126 6.2842L16.6024 6.15292ZM18.62 17.588L15.271 13.8669L12.737 14.7115C12.4524 14.8064 12.1386 14.7225 11.9393 14.4983L8.4677 10.5928L4.22401 14.8365C4.2728 15.3346 4.33446 15.8317 4.409 16.3274C4.5216 17.0762 5.13269 17.6502 5.88702 17.7158L7.39725 17.8471C10.4599 18.1133 13.5398 18.1133 16.6024 17.8471L18.1126 17.7158C18.2914 17.7003 18.4621 17.6562 18.62 17.588Z" fill="black"/>
</svg>
