<svg width="12" height="12" viewBox="0 0 12 12" fill="none" xmlns="http://www.w3.org/2000/svg">
<path d="M5.99996 5.16669C6.2761 5.16669 6.49996 5.39054 6.49996 5.66669V9.00002C6.49996 9.27616 6.2761 9.50002 5.99996 9.50002C5.72382 9.50002 5.49996 9.27616 5.49996 9.00002V5.66669C5.49996 5.39054 5.72382 5.16669 5.99996 5.16669Z" fill="#444444"/>
<path d="M5.99996 4.00002C6.36815 4.00002 6.66663 3.70154 6.66663 3.33335C6.66663 2.96516 6.36815 2.66669 5.99996 2.66669C5.63177 2.66669 5.33329 2.96516 5.33329 3.33335C5.33329 3.70154 5.63177 4.00002 5.99996 4.00002Z" fill="#444444"/>
<path fill-rule="evenodd" clip-rule="evenodd" d="M0.166626 6.00002C0.166626 2.77836 2.7783 0.166687 5.99996 0.166687C9.22162 0.166687 11.8333 2.77836 11.8333 6.00002C11.8333 9.22168 9.22162 11.8334 5.99996 11.8334C2.7783 11.8334 0.166626 9.22168 0.166626 6.00002ZM5.99996 1.16669C3.33058 1.16669 1.16663 3.33064 1.16663 6.00002C1.16663 8.6694 3.33058 10.8334 5.99996 10.8334C8.66934 10.8334 10.8333 8.6694 10.8333 6.00002C10.8333 3.33064 8.66934 1.16669 5.99996 1.16669Z" fill="#444444"/>
</svg>
