<svg width="33" height="32" viewBox="0 0 33 32" fill="currentColor" xmlns="http://www.w3.org/2000/svg">
<path d="M12.7572 4.30403C10.9392 4.10085 9.06049 4.10085 7.2425 4.30403C6.07292 4.43475 5.12719 5.35576 4.98926 6.535C4.77181 8.39423 4.77181 10.2725 4.98926 12.1317C5.12719 13.3109 6.07292 14.2319 7.2425 14.3627C9.06049 14.5658 10.9392 14.5658 12.7572 14.3627C13.9268 14.2319 14.8725 13.3109 15.0104 12.1317C15.2279 10.2725 15.2279 8.39423 15.0104 6.535C14.8725 5.35575 13.9268 4.43475 12.7572 4.30403Z" fill="currentColor"/>
<path d="M12.7572 17.6374C10.9392 17.4342 9.06049 17.4342 7.2425 17.6374C6.07292 17.7681 5.12719 18.6891 4.98926 19.8683C4.77181 21.7276 4.77181 23.6058 4.98926 25.465C5.12719 26.6443 6.07292 27.5653 7.2425 27.696C9.06049 27.8992 10.9392 27.8992 12.7572 27.696C13.9268 27.5653 14.8725 26.6443 15.0104 25.465C15.2279 23.6058 15.2279 21.7276 15.0104 19.8683C14.8725 18.6891 13.9268 17.7681 12.7572 17.6374Z" fill="currentColor"/>
<path d="M26.0906 4.30403C24.2726 4.10085 22.3938 4.10085 20.5759 4.30403C19.4063 4.43475 18.4605 5.35576 18.3226 6.535C18.1052 8.39423 18.1052 10.2725 18.3226 12.1317C18.4605 13.3109 19.4063 14.2319 20.5759 14.3627C22.3938 14.5658 24.2726 14.5658 26.0906 14.3627C27.2601 14.2319 28.2059 13.3109 28.3438 12.1317C28.5612 10.2725 28.5612 8.39423 28.3438 6.535C28.2059 5.35575 27.2601 4.43475 26.0906 4.30403Z" fill="currentColor"/>
<path d="M26.0906 17.6374C24.2726 17.4342 22.3938 17.4342 20.5759 17.6374C19.4063 17.7681 18.4605 18.6891 18.3226 19.8683C18.1052 21.7276 18.1052 23.6058 18.3226 25.465C18.4605 26.6443 19.4063 27.5653 20.5759 27.696C22.3938 27.8992 24.2726 27.8992 26.0906 27.696C27.2601 27.5653 28.2059 26.6443 28.3438 25.465C28.5612 23.6058 28.5612 21.7276 28.3438 19.8683C28.2059 18.6891 27.2601 17.7681 26.0906 17.6374Z" fill="currentColor"/>
</svg>
