<svg width="24" height="24" viewBox="0 0 24 24" fill="none" xmlns="http://www.w3.org/2000/svg">
<path d="M3.23592 18.182C3.5147 20.6415 5.59452 22.5591 8.06817 22.6468C9.32296 22.6914 10.6114 22.7144 12 22.7144C13.3887 22.7144 14.6771 22.6914 15.9319 22.6468C18.4056 22.5591 20.4854 20.6415 20.7641 18.182C20.8613 17.3248 20.9287 16.4538 20.9287 15.5716C20.9287 14.6893 20.8613 13.8184 20.7641 12.9611C20.4854 10.5016 18.4056 8.58403 15.9319 8.49624C14.6771 8.45172 13.3887 8.42871 12 8.42871C10.6114 8.42871 9.32296 8.45172 8.06817 8.49624C5.59451 8.58403 3.5147 10.5016 3.23592 12.9611C3.13874 13.8184 3.07147 14.6893 3.07147 15.5716C3.07147 16.4538 3.13874 17.3248 3.23592 18.182Z" fill="#D9D9D9" stroke="#444444" stroke-width="1.73116"/>
<path d="M17 8.42863V6.28577C17 4.95969 16.4732 3.68791 15.5355 2.75023C14.5978 1.81255 13.326 1.28577 11.9999 1.28577C10.6739 1.28577 9.4021 1.81255 8.46442 2.75023C7.52672 3.68791 6.99994 4.95969 6.99994 6.28577V8.42863" stroke="#444444" stroke-width="1.73116" stroke-linecap="round" stroke-linejoin="round"/>
<path d="M12 14.5714V16.2856" stroke="#444444" stroke-width="1.73116" stroke-linecap="round" stroke-linejoin="round"/>
</svg>
