<svg width="24" height="24" viewBox="0 0 24 24" fill="none" xmlns="http://www.w3.org/2000/svg">
<path d="M11.0588 1.45662C9.89867 1.34437 8.70368 1.28577 7.48316 1.28577C6.26262 1.28577 5.06762 1.34437 3.90745 1.45662C2.63078 1.58014 1.65414 2.87412 1.59647 4.4497C1.50741 6.88313 1.46051 9.40924 1.46051 12.0001C1.46051 14.5909 1.50741 17.117 1.59647 19.5505C1.65414 21.1261 2.63078 22.42 3.90745 22.5434C5.06762 22.6557 6.26262 22.7143 7.48316 22.7143C8.70368 22.7143 9.89867 22.6557 11.0588 22.5434C12.3355 22.42 13.3121 21.1261 13.3698 19.5505C13.4016 18.6822 13.428 17.8022 13.4488 16.9116V7.08856C13.428 6.19798 13.4016 5.31794 13.3698 4.4497C13.3121 2.87412 12.3355 1.58014 11.0588 1.45662Z" fill="#D9D9D9"/>
<path d="M13.3698 4.4497C13.3122 2.87412 12.3355 1.58014 11.0588 1.45662C9.89867 1.34437 8.70368 1.28577 7.48316 1.28577C6.26262 1.28577 5.06762 1.34437 3.90745 1.45662C2.63078 1.58014 1.65414 2.87412 1.59647 4.4497C1.50741 6.88313 1.46051 9.40924 1.46051 12.0001C1.46051 14.5909 1.50741 17.117 1.59647 19.5505C1.65414 21.1261 2.63078 22.42 3.90745 22.5434C5.06762 22.6557 6.26262 22.7143 7.48316 22.7143C8.70368 22.7143 9.89867 22.6557 11.0588 22.5434C12.3355 22.42 13.3122 21.1261 13.3698 19.5505" stroke="#444444" stroke-width="1.73116" stroke-linecap="round"/>
<path d="M17.1896 17.0771C19.3491 15.3078 20.4283 14.2289 22.1117 12.155C20.4283 10.081 19.3491 9.00217 17.1896 7.23279" stroke="#444444" stroke-width="1.73116" stroke-linecap="round" stroke-linejoin="round"/>
<path d="M6.86383 12.1553H22.057" stroke="#444444" stroke-width="1.73116" stroke-linecap="round" stroke-linejoin="round"/>
</svg>
