<svg width="24" height="24" viewBox="0 0 24 24" fill="none" xmlns="http://www.w3.org/2000/svg">
<g clip-path="url(#clip0_3632_1757)">
<path d="M3.75827 6.23083C5.1238 6.23083 6.2308 5.12383 6.2308 3.7583C6.2308 2.39275 5.1238 1.28577 3.75827 1.28577C2.39272 1.28577 1.28574 2.39275 1.28574 3.7583C1.28574 5.12383 2.39272 6.23083 3.75827 6.23083Z" fill="#D9D9D9" stroke="#444444" stroke-width="1.73116" stroke-linecap="round" stroke-linejoin="round"/>
<path d="M3.75827 14.4726C5.1238 14.4726 6.2308 13.3657 6.2308 12.0001C6.2308 10.6346 5.1238 9.52759 3.75827 9.52759C2.39272 9.52759 1.28574 10.6346 1.28574 12.0001C1.28574 13.3657 2.39272 14.4726 3.75827 14.4726Z" fill="#D9D9D9" stroke="#444444" stroke-width="1.73116" stroke-linecap="round" stroke-linejoin="round"/>
<path d="M12 6.23083C13.3655 6.23083 14.4725 5.12383 14.4725 3.7583C14.4725 2.39275 13.3655 1.28577 12 1.28577C10.6344 1.28577 9.52747 2.39275 9.52747 3.7583C9.52747 5.12383 10.6344 6.23083 12 6.23083Z" fill="#D9D9D9" stroke="#444444" stroke-width="1.73116" stroke-linecap="round" stroke-linejoin="round"/>
<path d="M12 14.4726C13.3655 14.4726 14.4725 13.3657 14.4725 12.0001C14.4725 10.6346 13.3655 9.52759 12 9.52759C10.6344 9.52759 9.52747 10.6346 9.52747 12.0001C9.52747 13.3657 10.6344 14.4726 12 14.4726Z" fill="#D9D9D9" stroke="#444444" stroke-width="1.73116" stroke-linecap="round" stroke-linejoin="round"/>
<path d="M12 22.7142C13.3655 22.7142 14.4725 21.6071 14.4725 20.2417C14.4725 18.8761 13.3655 17.7692 12 17.7692C10.6344 17.7692 9.52747 18.8761 9.52747 20.2417C9.52747 21.6071 10.6344 22.7142 12 22.7142Z" fill="#D9D9D9" stroke="#444444" stroke-width="1.73116" stroke-linecap="round" stroke-linejoin="round"/>
<path d="M20.2418 6.23083C21.6072 6.23083 22.7143 5.12383 22.7143 3.7583C22.7143 2.39275 21.6072 1.28577 20.2418 1.28577C18.8762 1.28577 17.7693 2.39275 17.7693 3.7583C17.7693 5.12383 18.8762 6.23083 20.2418 6.23083Z" fill="#D9D9D9" stroke="#444444" stroke-width="1.73116" stroke-linecap="round" stroke-linejoin="round"/>
<path d="M20.2418 14.4726C21.6072 14.4726 22.7143 13.3657 22.7143 12.0001C22.7143 10.6346 21.6072 9.52759 20.2418 9.52759C18.8762 9.52759 17.7693 10.6346 17.7693 12.0001C17.7693 13.3657 18.8762 14.4726 20.2418 14.4726Z" fill="#D9D9D9" stroke="#444444" stroke-width="1.73116" stroke-linecap="round" stroke-linejoin="round"/>
</g>
<defs>
<clipPath id="clip0_3632_1757">
<rect width="24" height="24" fill="white"/>
</clipPath>
</defs>
</svg>
