<svg width="22" height="22" viewBox="0 0 22 22" fill="none" xmlns="http://www.w3.org/2000/svg">
<path d="M10.9998 0C8.23841 0 5.99984 2.23858 5.99984 5C5.99984 7.76142 8.23841 10 10.9998 10C13.7613 10 15.9998 7.76142 15.9998 5C15.9998 2.23858 13.7613 0 10.9998 0Z" fill="#D2D2D2"/>
<path d="M5.6665 12.6667C2.90508 12.6667 0.666504 14.9052 0.666504 17.6667V19.251C0.666504 20.2554 1.39435 21.1117 2.38553 21.2735C8.09064 22.2049 13.909 22.2049 19.6141 21.2735C20.6053 21.1117 21.3332 20.2554 21.3332 19.251V17.6667C21.3332 14.9052 19.0946 12.6667 16.3332 12.6667H15.8787C15.6327 12.6667 15.3882 12.7056 15.1544 12.7819L14.0004 13.1587C12.0507 13.7954 9.949 13.7954 7.99929 13.1587L6.84527 12.7819C6.61143 12.7056 6.36699 12.6667 6.121 12.6667H5.6665Z" fill="#D2D2D2"/>
</svg>
