<svg width="24" height="24" viewBox="0 0 24 24" fill="none" xmlns="http://www.w3.org/2000/svg">
<g clip-path="url(#clip0_3629_4118)">
<path d="M8.29047 18.5895C4.45875 18.5895 2.40096 16.0196 1.69825 13.5121C1.36834 12.3348 1.297 11.2212 1.297 10.0203C1.297 5.48595 5.3777 1.83974 9.9074 1.63343C10.6033 1.60173 11.3048 1.58301 12.0113 1.58301C12.7178 1.58301 13.4193 1.60173 14.1152 1.63343C18.6448 1.83974 22.258 5.21424 22.6163 10.0203C22.8467 13.1091 22.6163 16.2356 21.9294 19.5154C21.5888 21.1415 20.8768 22.1874 19.7269 22.1874C19.209 22.1874 18.4184 20.5266 17.8936 20.5722C17.3555 20.6188 16.4086 22.417 15.2176 22.417C14.0266 22.417 12.9941 20.7174 12.4233 20.6874C11.5498 20.6416 10.7843 22.1874 10.15 22.1874C9.07641 22.1874 8.45705 20.7579 8.29047 18.5895Z" fill="#D9D9D9" stroke="#444444" stroke-width="1.73116" stroke-linejoin="round"/>
<path d="M12.5029 10.0052V11.8796" stroke="#444444" stroke-width="1.73116" stroke-linecap="round"/>
<path d="M18.0209 10.0052V11.8796" stroke="#444444" stroke-width="1.73116" stroke-linecap="round"/>
</g>
<defs>
<clipPath id="clip0_3629_4118">
<rect width="24" height="24" fill="white"/>
</clipPath>
</defs>
</svg>
