<svg width="24" height="24" viewBox="0 0 24 24" fill="none" xmlns="http://www.w3.org/2000/svg">
<path fill-rule="evenodd" clip-rule="evenodd" d="M13.1545 3.36026C12.4834 3.00999 11.574 3.00459 10.8975 3.35396C8.30454 4.6931 5.95267 6.22853 3.89169 7.93154C3.57299 8.19489 3.34681 8.57758 3.35067 9.02802C3.35451 9.47662 3.58529 9.85419 3.90206 10.1132C5.94592 11.7844 8.29972 13.3212 10.8452 14.6497C11.5163 15 12.4257 15.0054 13.1022 14.656C15.6952 13.3169 18.047 11.7815 20.108 10.0785C20.4267 9.8151 20.6529 9.43242 20.649 8.98197C20.6452 8.53338 20.4144 8.1558 20.0976 7.89679C18.0538 6.22562 15.7 4.6888 13.1545 3.36026ZM11.5858 4.68671C11.8255 4.56294 12.2192 4.56411 12.4605 4.69004C14.8898 5.95796 17.1282 7.41666 19.0674 8.99223C17.1166 10.5932 14.8849 12.0471 12.4139 13.3233C12.1742 13.4471 11.7805 13.4459 11.5393 13.32C9.10991 12.052 6.87151 10.5933 4.93228 9.01777C6.88309 7.41684 9.11484 5.96285 11.5858 4.68671Z" fill="black"/>
<path d="M21.1969 12.698C21.4162 13.0494 21.3092 13.512 20.9579 13.7314L14.8506 17.5443C14.0219 18.0617 12.9937 18.3009 11.9998 18.301C11.0058 18.301 9.97758 18.0619 9.14872 17.5446L3.10839 13.7749C2.75699 13.5556 2.64991 13.093 2.86921 12.7416C3.08852 12.3902 3.55116 12.2831 3.90256 12.5024L9.94289 16.2721C10.487 16.6117 11.2262 16.801 11.9997 16.801C12.7731 16.8009 13.5122 16.6116 14.0563 16.2719L20.1635 12.459C20.5149 12.2397 20.9775 12.3467 21.1969 12.698Z" fill="black"/>
<path d="M21.1968 16.4527C21.4162 16.804 21.3093 17.2667 20.958 17.4861L15.6691 20.7889C14.6114 21.4494 13.2884 21.7602 11.9997 21.7602C10.711 21.7603 9.38795 21.4497 8.33017 20.7894L3.10831 17.5296C2.75694 17.3102 2.64992 16.8476 2.86926 16.4962C3.08861 16.1448 3.55127 16.0378 3.90263 16.2572L9.1245 19.517C9.89751 19.9995 10.9314 20.2603 11.9996 20.2602C13.0678 20.2602 14.1017 19.9993 14.8745 19.5167L20.1634 16.2138C20.5148 15.9944 20.9774 16.1013 21.1968 16.4527Z" fill="black"/>
</svg>
