<svg width="24" height="24" viewBox="0 0 24 24" fill="none" xmlns="http://www.w3.org/2000/svg">
<g clip-path="url(#clip0_3629_4124)">
<path d="M21.918 14.5881C22.1144 14.4859 22.2833 14.3379 22.4105 14.1567C23.2942 12.8968 19.6958 9.8416 19.44 8.00536C18.7483 3.03893 14.8487 1.28577 10.5078 1.28577C4.65762 1.28577 1.28571 4.28577 1.28571 10.2858C1.28571 14.3892 2.35737 15.7642 3.65331 17.8612C4.36377 19.0108 4.66503 20.3541 4.6616 21.7055C4.65949 22.5362 4.65762 23.4292 4.65762 23.9881H14.9751V20.9995C15.0694 20.236 15.7505 19.7224 16.5198 19.7224H17.3655C18.7856 19.7224 19.937 18.5711 19.937 17.151V14.7776L21.2822 14.7437C21.5035 14.7437 21.7217 14.6903 21.918 14.5881Z" fill="#D9D9D9"/>
<path d="M11.1463 8.57818V1.28577" stroke="#444444" stroke-width="1.73116" stroke-linecap="round" stroke-linejoin="round"/>
<path d="M12 15.3683C13.7143 17.0826 17.1429 18.8571 21.4286 18.8571" stroke="#444444" stroke-width="1.73116" stroke-linecap="round"/>
<path d="M4.65762 23.1281C4.65762 22.7151 4.65863 22.2086 4.66002 21.7111C4.66379 20.3559 4.36281 19.0088 3.65029 17.8562C2.35571 15.762 1.28571 14.3859 1.28571 10.2856C1.28571 6.47727 2.64417 3.87754 5.13261 2.48645" stroke="#444444" stroke-width="1.73116" stroke-linecap="round" stroke-linejoin="round"/>
<path d="M19.937 15.8147V14.7776L21.2822 14.7438C21.5035 14.7437 21.7217 14.6903 21.918 14.5881C22.1145 14.486 22.2833 14.338 22.4105 14.1568C23.2942 12.8969 19.6958 9.84166 19.44 8.0054C19.0375 5.11505 17.5483 3.31303 15.5181 2.31152" stroke="#444444" stroke-width="1.73116" stroke-linecap="round" stroke-linejoin="round"/>
<path d="M14.9751 20.9996V23.1281" stroke="#444444" stroke-width="1.73116" stroke-linecap="round" stroke-linejoin="round"/>
<path d="M11.1463 15.4286C13.3406 15.4286 14.5749 14.1943 14.5749 12C14.5749 9.8057 13.3406 8.57141 11.1463 8.57141C8.952 8.57141 7.71771 9.8057 7.71771 12C7.71771 14.1943 8.952 15.4286 11.1463 15.4286Z" fill="#FAFAFA" stroke="#444444" stroke-width="1.73116" stroke-linecap="round" stroke-linejoin="round"/>
</g>
<defs>
<clipPath id="clip0_3629_4124">
<rect width="24" height="24" fill="white"/>
</clipPath>
</defs>
</svg>
