<svg width="24" height="24" viewBox="0 0 24 24" fill="none" xmlns="http://www.w3.org/2000/svg">
<path d="M9.16129 2.78775C9.16129 2.35269 9.50791 2 9.93548 2H14.0645C14.4921 2 14.8387 2.35269 14.8387 2.78775V3.5755H19.2258C19.6534 3.5755 20 3.92819 20 4.36325C20 4.79832 19.6534 5.15101 19.2258 5.15101H4.77419C4.34662 5.15101 4 4.79832 4 4.36325C4 3.92819 4.34662 3.5755 4.77419 3.5755H9.16129V2.78775Z" fill="#444444"/>
<path fill-rule="evenodd" clip-rule="evenodd" d="M6.05409 7.98143C6.08313 7.71547 6.30407 7.51426 6.56706 7.51426H17.4329C17.6959 7.51426 17.9169 7.71547 17.9459 7.98143L18.1525 9.87345C18.5249 13.2839 18.5249 16.7258 18.1525 20.1362L18.1322 20.3224C17.9965 21.5645 17.0504 22.555 15.8341 22.7282C13.2904 23.0906 10.7096 23.0906 8.16592 22.7282C6.94955 22.555 6.00346 21.5645 5.86782 20.3224L5.84748 20.1362C5.47507 16.7258 5.47507 13.2839 5.84748 9.87345L6.05409 7.98143ZM10.7097 11.6106C10.7097 11.1755 10.3631 10.8228 9.93548 10.8228C9.50791 10.8228 9.16129 11.1755 9.16129 11.6106L9.16129 18.9629C9.16129 19.398 9.50791 19.7507 9.93548 19.7507C10.3631 19.7507 10.7097 19.398 10.7097 18.9629L10.7097 11.6106ZM14.8387 11.6106C14.8387 11.1755 14.4921 10.8228 14.0645 10.8228C13.6369 10.8228 13.2903 11.1755 13.2903 11.6106V18.9629C13.2903 19.398 13.6369 19.7507 14.0645 19.7507C14.4921 19.7507 14.8387 19.398 14.8387 18.9629V11.6106Z" fill="#444444"/>
</svg>
