<svg width="24" height="24" viewBox="0 0 24 24" fill="none" xmlns="http://www.w3.org/2000/svg">
<g clip-path="url(#clip0_3629_4134)">
<path d="M15.6353 8.63404C14.2313 7.23006 14.1548 5.72708 17.039 2.84282C17.1527 2.72917 17.1306 2.53809 16.99 2.46018C14.3977 1.0234 11.8677 1.35514 9.73463 3.48822C7.73245 5.49042 7.3173 7.84232 8.46207 10.2671C8.50425 10.3565 8.48109 10.4635 8.40736 10.5293C7.4055 11.4231 6.3819 12.3498 5.38655 13.3452C4.39119 14.3406 3.46446 15.3641 2.57063 16.366C1.50563 17.5598 1.27694 19.4184 2.27505 20.6686C2.43133 20.8644 2.59712 21.0536 2.77588 21.2323C2.95467 21.4111 3.14382 21.5768 3.33956 21.7332C4.58979 22.7312 6.44848 22.5026 7.64223 21.4376C8.64409 20.5438 9.66767 19.6171 10.663 18.6218C11.6584 17.6263 12.5851 16.6027 13.479 15.6009C13.5447 15.5271 13.6518 15.504 13.7411 15.5461C16.1659 16.6909 18.5177 16.2757 20.52 14.2736C22.5844 12.2092 22.9615 9.77298 21.6813 7.26844C21.6321 7.1721 21.503 7.15375 21.4265 7.23026C18.5423 10.1145 17.0392 10.038 15.6353 8.63404Z" fill="#D9D9D9" stroke="#444444" stroke-width="1.73116" stroke-linecap="round" stroke-linejoin="round"/>
</g>
<defs>
<clipPath id="clip0_3629_4134">
<rect width="24" height="24" fill="white"/>
</clipPath>
</defs>
</svg>
