<svg width="152" height="114" viewBox="0 0 152 114" fill="none" xmlns="http://www.w3.org/2000/svg">
<path d="M113.499 54.777V39.9H129.2V96.9H64.6V39.9H80.3014V54.777H113.499ZM80.3014 68.8845V82.65H113.499V68.8845H80.3014Z" fill="#444444"/>
<path d="M11.9792 30.7466L16.6022 17.1C21.5808 19.3154 28.6042 20.2901 34.0273 20.2901H62.032V34.2912H30.4712C25.2258 34.2912 17.1356 33.6709 11.9792 30.7466ZM5.93374 53.3433V39.9H68.4L68.1664 53.3433H45.1403C45.3181 59.5464 52.786 65.6608 70.3 68.7623L67.7218 81.7C52.1637 80.1049 43.54 75.497 37.0501 70.5346C30.5601 75.497 21.9364 80.1049 6.37826 81.7L3.80005 68.7623C21.3141 65.6608 28.782 59.5464 28.9598 53.3433H5.93374Z" fill="#444444"/>
<path d="M133 39.9H148.2V96.9H133V39.9Z" fill="#444444"/>
</svg>
