<svg viewBox="0 0 342 26" width="100%" height="100%" fill="none" xmlns="http://www.w3.org/2000/svg">
<path d="M15.0444 6.59104C13.4869 10.0826 20.0919 12.6941 23.3507 10.5481C27.9625 7.51111 24.4026 2.25753 19.1975 1.23741C9.43481 -0.225936 0.78921 5.25891 1.00392 12.643C1.18859 18.9943 6.47017 22.4172 12.7082 23.828C15.7208 24.5094 18.8578 24.9198 20.755 24.9797C45.1547 25.7503 78.2953 4.27287 111.748 5.11986C119.668 5.32039 138.287 7.75488 138.287 16.8402C137.973 20.5645 134.945 24.0312 129.684 23.5785M129.684 23.5785C129.403 23.5543 129.116 23.5204 128.821 23.4762M129.684 23.5785C129.393 23.5668 129.105 23.5319 128.821 23.4762M128.821 23.4762C125.292 22.7847 123.275 18.6588 126.401 16.6001C128.61 15.1453 132.16 16.9175 130.554 19.6261" stroke="#444444" stroke-width="2"/>
<path d="M326.846 6.59104C328.416 10.0826 321.759 12.6941 318.475 10.5481C313.827 7.51111 317.415 2.25753 322.66 1.23741C332.499 -0.225936 341.212 5.25891 340.996 12.643C340.81 18.9943 335.487 22.4172 329.2 23.828C326.164 24.5094 323.003 24.9198 321.091 24.9797C296.5 25.7503 263.101 4.27287 229.387 5.11986C221.405 5.32039 202.64 7.75488 202.64 16.8402C202.957 20.5645 206.008 24.0312 211.31 23.5785M211.31 23.5785C211.594 23.5543 211.884 23.5204 212.181 23.4762M211.31 23.5785C211.603 23.5668 211.894 23.5319 212.181 23.4762M212.181 23.4762C215.737 22.7847 217.77 18.6588 214.619 16.6001C212.393 15.1453 208.815 16.9175 210.434 19.6261" stroke="#444444" stroke-width="2"/>
</svg>
