<svg width="58" height="33" viewBox="0 0 58 33" fill="none" xmlns="http://www.w3.org/2000/svg">
<path d="M43.8021 15.6225V9.75H50V32.25H24.5V9.75H30.6979V15.6225H43.8021ZM30.6979 21.1913V26.625H43.8021V21.1913H30.6979Z" fill="#FAFAFA"/>
<path d="M3.72861 6.13683L5.55348 0.75C7.51872 1.62448 10.2911 2.00926 12.4318 2.00926H23.4863V7.53601H11.0281C8.95755 7.53601 5.76404 7.29115 3.72861 6.13683ZM1.34225 15.0566V9.75H26L25.9077 15.0566H16.8185C16.8887 17.5051 19.8366 19.9187 26.75 21.143L25.7323 26.25C19.5909 25.6204 16.1868 23.8014 13.625 21.8426C11.0632 23.8014 7.65909 25.6204 1.51771 26.25L0.5 21.143C7.41344 19.9187 10.3613 17.5051 10.4315 15.0566H1.34225Z" fill="#FAFAFA"/>
<path d="M51.5 9.75H57.5V32.25H51.5V9.75Z" fill="#FAFAFA"/>
</svg>
