<svg width="166" height="92" viewBox="0 0 166 92" fill="none" xmlns="http://www.w3.org/2000/svg">
<path d="M126.108 43.4371V26.2857H144.158V92H69.8947V26.2857H87.9448V43.4371H126.108ZM87.9448 59.7014V75.5714H126.108V59.7014H87.9448Z" fill="#444444"/>
<path d="M9.40262 15.733L14.7171 0C20.4405 2.55405 28.5145 3.67784 34.7488 3.67784H66.9426V19.8195H30.6607C24.6308 19.8195 15.3304 19.1043 9.40262 15.733ZM2.45286 41.7843V26.2857H74.2632L73.9945 41.7843H47.5241C47.7285 48.9357 56.3135 55.9848 76.4474 59.5605L73.4835 74.4762C55.5981 72.6373 45.6845 67.3248 38.2237 61.6038C30.7629 67.3248 20.8493 72.6373 2.96387 74.4762L0 59.5605C20.1339 55.9848 28.7189 48.9357 28.9233 41.7843H2.45286Z" fill="#444444"/>
<path d="M148.526 26.2857H166V92H148.526V26.2857Z" fill="#444444"/>
</svg>
