<?xml version="1.0" standalone="no"?>
<!DOCTYPE svg PUBLIC "-//W3C//DTD SVG 20010904//EN"
 "http://www.w3.org/TR/2001/REC-SVG-20010904/DTD/svg10.dtd">
<svg version="1.0" xmlns="http://www.w3.org/2000/svg"
 width="664.000000pt" height="348.000000pt" viewBox="0 0 664.000000 348.000000"
 preserveAspectRatio="xMidYMid meet">

<g transform="translate(0.000000,348.000000) scale(0.100000,-0.100000)"
fill="#000000" stroke="none">
<path d="M3413 2305 c0 -22 2 -30 4 -17 2 12 2 30 0 40 -3 9 -5 -1 -4 -23z"/>
<path d="M3401 2204 c0 -11 3 -14 6 -6 3 7 2 16 -1 19 -3 4 -6 -2 -5 -13z"/>
<path d="M3218 2034 c13 -9 26 -13 30 -9 8 8 -17 25 -38 25 -9 0 -6 -6 8 -16z"/>
<path d="M3210 2000 c0 -5 5 -10 11 -10 5 0 7 5 4 10 -3 6 -8 10 -11 10 -2 0
-4 -4 -4 -10z"/>
<path d="M2661 1874 c0 -11 3 -14 6 -6 3 7 2 16 -1 19 -3 4 -6 -2 -5 -13z"/>
<path d="M2785 1878 c-4 -10 -4 -26 0 -35 8 -17 8 -17 12 0 3 9 3 25 0 35 -4
16 -4 16 -12 0z"/>
<path d="M3275 1880 c3 -5 8 -10 11 -10 2 0 4 5 4 10 0 6 -5 10 -11 10 -5 0
-7 -4 -4 -10z"/>
<path d="M2600 1871 c0 -6 5 -13 10 -16 6 -3 10 1 10 9 0 9 -4 16 -10 16 -5 0
-10 -4 -10 -9z"/>
<path d="M3116 1851 c-4 -5 -2 -12 3 -15 5 -4 12 -2 15 3 4 5 2 12 -3 15 -5 4
-12 2 -15 -3z"/>
<path d="M3222 1844 c-12 -6 -19 -14 -15 -17 3 -4 1 -7 -5 -7 -7 0 -12 -7 -12
-15 0 -8 -7 -15 -16 -15 -9 0 -12 -5 -8 -12 5 -8 2 -9 -10 -5 -10 4 -21 7 -24
7 -4 0 0 4 8 10 17 10 14 15 -18 24 -20 7 -22 4 -20 -22 1 -20 6 -28 15 -25 7
3 24 -2 38 -11 13 -9 31 -16 38 -16 8 0 21 -10 30 -22 15 -23 15 -22 11 10 -3
18 -1 32 5 32 5 0 13 10 17 23 4 12 11 25 17 29 6 3 11 15 12 25 1 21 -28 24
-63 7z m31 -10 c-7 -3 -10 -11 -7 -19 3 -7 -4 -18 -15 -25 -14 -7 -21 -7 -21
0 0 14 32 50 45 49 5 0 5 -3 -2 -5z"/>
<path d="M2621 1841 c-7 -5 -21 -7 -30 -4 -12 3 -16 -3 -16 -29 0 -27 4 -33
22 -33 11 0 25 -4 29 -8 5 -4 1 -5 -9 -1 -9 3 -17 1 -17 -5 0 -6 -6 -9 -12 -7
-7 1 -10 1 -5 -1 4 -3 7 -11 7 -19 0 -14 11 -18 40 -15 11 1 11 -1 -2 -9 -10
-6 -18 -20 -18 -30 0 -24 -3 -24 -59 -4 -24 8 -50 13 -58 10 -20 -8 -16 -43 7
-49 20 -5 28 -27 10 -27 -5 0 -10 5 -10 10 0 6 -5 10 -10 10 -6 0 -4 -13 5
-30 20 -40 19 -72 -5 -100 -22 -25 -28 -42 -8 -22 7 7 22 12 35 12 13 0 31 4
41 9 56 30 93 40 142 38 40 -1 62 3 80 17 l25 18 -27 -4 c-17 -3 -29 0 -32 9
-4 11 -1 13 14 8 11 -4 20 -2 20 4 0 6 -4 11 -10 11 -18 0 -10 18 10 23 20 5
28 27 10 27 -14 0 -12 37 3 44 6 3 -1 4 -16 1 -21 -4 -28 -2 -25 7 3 7 17 13
31 12 31 0 34 8 12 30 -13 12 -14 20 -5 37 13 24 4 41 -11 19 -8 -13 -13 -11
-30 10 -19 23 -22 23 -34 7 -17 -23 -28 -22 -20 3 4 11 2 20 -4 20 -6 0 -11
-4 -11 -9 0 -5 -9 -11 -21 -14 -17 -5 -20 -2 -16 14 6 21 0 24 -22 10z m124
-51 c3 -6 -4 -10 -17 -10 -18 0 -20 2 -8 10 19 12 18 12 25 0z m8 -36 c-4 -11
-8 -12 -13 -4 -4 7 -13 9 -19 6 -6 -4 -11 -2 -11 3 0 6 11 11 25 11 18 0 23
-4 18 -16z m-43 -55 c0 -6 -4 -7 -10 -4 -5 3 -10 11 -10 16 0 6 5 7 10 4 6 -3
10 -11 10 -16z m-191 -48 c-15 -5 -22 6 -14 19 6 9 10 9 16 -1 5 -8 4 -15 -2
-18z m41 -83 c0 -5 -7 -8 -15 -8 -15 0 -20 21 -8 33 7 7 23 -11 23 -25z"/>
<path d="M2546 1777 c3 -10 9 -15 12 -12 3 3 0 11 -7 18 -10 9 -11 8 -5 -6z"/>
<path d="M3545 1778 c-16 -5 -44 -16 -62 -24 -17 -8 -34 -14 -38 -14 -3 0 -21
-11 -39 -25 -18 -14 -37 -25 -42 -25 -5 0 -33 -16 -63 -35 -29 -19 -59 -35
-67 -35 -8 0 -14 -3 -14 -8 0 -6 -72 -42 -86 -42 -3 0 -12 -7 -20 -15 -13 -12
-13 -15 -2 -15 8 0 19 5 26 12 7 7 12 9 12 5 0 -4 10 -3 21 4 12 6 32 12 44
14 23 2 95 43 143 82 31 24 134 77 172 88 33 10 64 32 53 38 -4 2 -21 0 -38
-5z"/>
<path d="M3081 1764 c0 -11 3 -14 6 -6 3 7 2 16 -1 19 -3 4 -6 -2 -5 -13z"/>
<path d="M3016 1517 c-33 -12 -61 -27 -63 -34 -2 -6 26 0 66 15 39 15 71 30
71 34 0 11 -7 10 -74 -15z"/>
<path d="M3438 1493 c7 -3 16 -2 19 1 4 3 -2 6 -13 5 -11 0 -14 -3 -6 -6z"/>
<path d="M2918 1464 c-3 -3 -84 -21 -179 -40 -96 -20 -181 -42 -190 -50 -9 -8
-34 -18 -55 -21 -22 -3 -72 -16 -113 -29 -40 -13 -80 -24 -88 -24 -8 0 -38
-11 -66 -24 -54 -26 -355 -116 -385 -116 -10 0 -22 -4 -27 -9 -6 -5 -37 -16
-70 -26 -33 -10 -91 -29 -130 -42 -38 -14 -113 -33 -165 -44 -52 -11 -104 -23
-115 -28 -11 -5 -69 -19 -130 -32 -60 -12 -132 -31 -160 -42 -27 -10 -68 -25
-90 -31 -65 -21 -165 -70 -165 -83 0 -14 53 -2 116 27 44 20 206 69 349 105
192 50 324 85 420 115 96 30 132 37 203 39 21 1 40 10 54 26 12 14 29 25 38
25 9 0 20 4 25 9 6 5 51 21 100 36 50 14 108 32 130 40 22 7 67 21 100 30 33
10 86 26 118 36 164 54 353 100 417 101 81 1 90 6 75 35 -7 13 -14 20 -17 17z"/>
<path d="M2440 1449 c0 -5 5 -7 10 -4 6 3 10 8 10 11 0 2 -4 4 -10 4 -5 0 -10
-5 -10 -11z"/>
<path d="M2395 1410 c-26 -29 -15 -32 15 -4 13 13 20 24 14 24 -6 0 -19 -9
-29 -20z"/>
<path d="M3488 1423 c7 -3 16 -2 19 1 4 3 -2 6 -13 5 -11 0 -14 -3 -6 -6z"/>
<path d="M2348 1033 c6 -2 10 -8 7 -13 -8 -13 16 -60 31 -60 16 0 6 40 -12 47
-7 2 -10 11 -7 19 3 9 -1 14 -13 13 -11 0 -14 -3 -6 -6z"/>
<path d="M2410 1030 c19 -13 30 -13 30 0 0 6 -10 10 -22 10 -19 0 -20 -2 -8
-10z"/>
<path d="M2491 1004 c0 -11 3 -14 6 -6 3 7 2 16 -1 19 -3 4 -6 -2 -5 -13z"/>
</g>
</svg>
